{
    "asset": {
        "version": "2.0",
        "generator": "Open Asset Import Library (assimp v5.0.5eb040c7)"
    },
    "accessors": [
        {
            "bufferView": 0,
            "byteOffset": 0,
            "componentType": 5126,
            "count": 2666,
            "type": "VEC3",
            "max": [
                200.86996459960938,
                216.6830596923828,
                73.65030670166016
            ],
            "min": [
                140.92401123046876,
                77.9538803100586,
                -76.07965087890625
            ]
        },
        {
            "bufferView": 1,
            "byteOffset": 0,
            "componentType": 5126,
            "count": 2666,
            "type": "VEC3",
            "max": [
                0.02989800088107586,
                0.26801300048828127,
                0.07715199887752533
            ],
            "min": [
                -0.03004699945449829,
                0.12928402423858643,
                -0.07257699966430664
            ]
        },
        {
            "bufferView": 2,
            "byteOffset": 0,
            "componentType": 5125,
            "count": 15984,
            "type": "SCALAR",
            "max": [
                2665
            ],
            "min": [
                0
            ]
        }
    ],
    "buffers": [
        {
            "byteLength": 127920,
            "uri": "result.bin"
        }
    ],
    "bufferViews": [
        {
            "buffer": 0,
            "byteOffset": 0,
            "byteLength": 31992,
            "target": 34962
        },
        {
            "buffer": 0,
            "byteOffset": 31992,
            "byteLength": 31992,
            "target": 34962
        },
        {
            "buffer": 0,
            "byteOffset": 63984,
            "byteLength": 63936,
            "target": 34963
        }
    ],
    "materials": [
        {
            "name": "DefaultMaterial",
            "pbrMetallicRoughness": {
                "baseColorFactor": [
                    0.6000000238418579,
                    0.6000000238418579,
                    0.6000000238418579,
                    1.0
                ],
                "metallicFactor": 0.0
            }
        },
        {
            "name": "Danel_Glossy",
            "pbrMetallicRoughness": {
                "baseColorFactor": [
                    0.6000000238418579,
                    0.6000000238418579,
                    0.6000000238418579,
                    1.0
                ],
                "metallicFactor": 0.0
            }
        }
    ],
    "meshes": [
        {
            "name": "Heart",
            "primitives": [
                {
                    "mode": 4,
                    "material": 1,
                    "indices": 2,
                    "attributes": {
                        "POSITION": 0,
                        "TEXCOORD_0": 1
                    }
                }
            ]
        }
    ],
    "nodes": [
        {
            "name": "input.obj",
            "children": [
                1
            ]
        },
        {
            "name": "Heart",
            "mesh": 0
        }
    ],
    "scenes": [
        {
            "nodes": [
                0
            ]
        }
    ],
    "scene": 0
}